:SAMPLES-PER-SECOND 30
:FULLY-SPECIFIED
:DEGREES
534
root  -13.0349 40.174 9.12236 -172.342 -72.36 164.577
RightUpLeg  -10.5525 -6.90808 -18.7739
RightLeg  50.3944 -4.41945 -6.06131
RightFoot  2.11029 -0.75141 6.49028
RightToes  0.000482159 0.542163 -0.142577
Spine  19.2501 -0.786432 -7.10706
Spine1  4.4977 -3.05896 3.58949
HEad  -12.4734 -8.97479 0.599629
LeftShoulder1  7.19951 -11.3818 -41.9835
LeftArm  -15.9995 24.8568 -21.2513
LeftForeArm  9.5653 -5.77359 -2.50318
LeftHand  -0.25398 0.0180481 5.50724
RightShoulder  4.83837 8.34843 34.8635
RightArm  5.04834 -19.6549 30.9849
RightForeArm  -5.3055 21.8483 5.27581
RightHand  -0.457035 -1.75588 -14.293
LeftUpLeg  -1.64863 9.94116 -0.426502
LeftLeg  14.3992 2.74822 -2.78658
LeftFoot  -5.58835 0.0799903 -0.931482
LeftToes  1.06248e-005 4.65855e-005 -8.18498e-006
535
root  -12.1031 39.9725 8.62352 -167.879 -73.6255 160.211
RightUpLeg  -6.50633 -3.5567 -21.1717
RightLeg  49.5816 -3.84139 -5.16865
RightFoot  2.78379 -0.614255 5.1156
RightToes  0.000482159 0.542163 -0.142577
Spine  18.0666 -0.315947 -7.81351
Spine1  4.7994 -2.44324 2.82715
HEad  -12.8339 -9.52998 0.577137
LeftShoulder1  6.89404 -10.9357 -41.401
LeftArm  -14.895 27.5224 -20.044
LeftForeArm  8.0397 -4.64853 -2.49957
LeftHand  -0.25398 0.0180481 5.50724
RightShoulder  4.79673 8.21769 34.9617
RightArm  2.06182 -19.6642 32.0632
RightForeArm  -5.29965 20.7222 5.40982
RightHand  -0.621071 -0.6248 -15.0533
LeftUpLeg  -4.05397 11.3382 -0.765933
LeftLeg  15.7642 -0.183179 -2.54602
LeftFoot  -4.93452 0.156416 -2.2526
LeftToes  1.06248e-005 4.65855e-005 -8.18498e-006
536
root  -11.1556 39.7441 8.12183 -163.856 -74.2355 156.167
RightUpLeg  -2.09273 -0.231179 -22.5264
RightLeg  46.4836 -3.25062 -3.98938
RightFoot  2.94294 -0.418403 3.44919
RightToes  0.000482159 0.542163 -0.142577
Spine  17.1966 0.245444 -7.88475
Spine1  4.9612 -1.49933 1.66264
HEad  -13.0265 -10.0665 0.222674
LeftShoulder1  6.55276 -10.4584 -40.6358
LeftArm  -14.7036 30.2157 -19.1068
LeftForeArm  7.95044 -5.60649 -2.36862
LeftHand  -0.25398 0.0180481 5.50724
RightShoulder  4.80851 8.19196 35.1492
RightArm  -1.21406 -19.2595 33.3005
RightForeArm  -4.25894 19.1115 5.63542
RightHand  -0.735491 0.237458 -15.1958
LeftUpLeg  -6.3083 12.8022 -1.1688
LeftLeg  17.0571 -2.57829 -2.14066
LeftFoot  -4.0265 0.285939 -4.09098
LeftToes  1.06248e-005 4.65855e-005 -8.18498e-006
537
root  -10.1639 39.4932 7.5868 -161.442 -74.4759 153.697
RightUpLeg  2.72222 3.05368 -22.7467
RightLeg  41.0495 -1.9969 -2.16606
RightFoot  0.752554 -0.525714 5.14218
RightToes  0.000482159 0.542163 -0.142577
Spine  16.6572 0.872172 -7.33034
Spine1  4.97272 -0.366876 0.350606
HEad  -12.8396 -10.5221 -0.606157
LeftShoulder1  6.14782 -9.87168 -39.7163
LeftArm  -15.5645 32.3711 -18.6472
LeftForeArm  8.37054 -7.58206 -2.03164
LeftHand  -0.25398 0.0180481 5.50724
RightShoulder  4.81236 8.15292 35.3168
RightArm  -4.15329 -18.4801 34.467
RightForeArm  -1.91422 17.8414 5.7151
RightHand  -0.710206 0.318488 -14.4652
LeftUpLeg  -8.47472 13.6277 -1.14105
LeftLeg  18.2471 -4.146 -1.75235
LeftFoot  -3.19137 0.425564 -5.71617
LeftToes  1.06248e-005 4.65855e-005 -8.18498e-006
538
root  -9.10223 39.215 6.99015 -159.961 -74.6293 152.427
RightUpLeg  7.29171 5.2273 -22.3155
RightLeg  33.9814 -0.0801378 -0.314106
RightFoot  -4.97469 -0.606747 10.7712
RightToes  0.000482159 0.542163 -0.142577
Spine  16.2124 1.48314 -6.74859
Spine1  4.78398 0.650435 -0.609496
HEad  -12.42 -10.6977 -1.65597
LeftShoulder1  5.63582 -9.05442 -38.6737
LeftArm  -17.2264 33.6533 -18.8213
LeftForeArm  8.21786 -9.55911 -1.59382
LeftHand  -0.25398 0.0180481 5.50724
RightShoulder  4.77478 8.04979 35.3589
RightArm  -6.36407 -17.4682 35.3759
RightForeArm  0.241484 17.5158 5.54604
RightHand  -0.641339 0.117394 -13.5431
LeftUpLeg  -10.8982 13.1984 -0.608385
LeftLeg  19.1908 -4.53801 -1.48463
LeftFoot  -2.36016 0.556722 -6.90522
LeftToes  1.06248e-005 4.65855e-005 -8.18498e-006
539
root  -7.97056 38.9457 6.35069 -159.013 -74.9959 151.907
RightUpLeg  10.84 4.93918 -21.597
RightLeg  26.782 1.66653 0.704771
RightFoot  -12.4535 0.045479 15.5486
RightToes  0.000482159 0.542163 -0.142577
Spine  16.0359 1.80549 -6.09603
Spine1  4.26177 1.27819 -1.16595
HEad  -12.2486 -10.3022 -2.55491
LeftShoulder1  5.01351 -7.98929 -37.4552
LeftArm  -19.3145 34.0173 -19.6203
LeftForeArm  7.52097 -10.8821 -1.13685
LeftHand  -0.25398 0.0180481 5.50724
RightShoulder  4.71973 7.9237 35.3335
RightArm  -8.39021 -16.2858 35.9435
RightForeArm  0.709035 18.0269 5.28441
RightHand  -0.651886 0.351862 -13.2251
LeftUpLeg  -13.2618 11.971 0.446832
LeftLeg  19.3587 -4.05082 -1.23604
LeftFoot  -0.723629 0.816091 -8.68134
LeftToes  1.06248e-005 4.65855e-005 -8.18498e-006
540
root  -6.78073 38.7862 5.72813 -160.283 -75.7291 153.554
RightUpLeg  12.7239 1.88123 -20.3336
RightLeg  21.437 2.69113 0.935101
RightFoot  -18.2241 0.75426 14.8006
RightToes  0.000482159 0.542163 -0.142577
Spine  16.4771 1.59873 -4.19436
Spine1  3.44216 1.58828 -1.9804
HEad  -12.6763 -9.31984 -3.35498
LeftShoulder1  4.39599 -6.89411 -36.1415
LeftArm  -21.3308 33.4032 -20.7643
LeftForeArm  6.69696 -11.315 -0.717014
LeftHand  -0.25398 0.0180481 5.50724
RightShoulder  4.68774 7.85205 35.3126
RightArm  -10.9591 -14.8876 36.0601
RightForeArm  -0.213404 18.7861 5.07716
RightHand  -0.74842 1.0511 -13.5909
LeftUpLeg  -14.7757 10.7951 2.29489
LeftLeg  18.0635 -3.30445 -0.902071
LeftFoot  1.57025 1.23613 -10.9928
LeftToes  1.06248e-005 4.65855e-005 -8.18498e-006
541
root  -5.50126 38.8044 5.12596 -164.396 -76.5385 158.155
RightUpLeg  12.4826 -2.61952 -18.3971
RightLeg  18.94 3.69743 1.00212
RightFoot  -20.7599 0.740192 10.5794
RightToes  0.000482159 0.542163 -0.142577
Spine  17.2231 1.11249 -1.07109
Spine1  2.79551 1.86669 -3.56519
HEad  -13.5266 -8.03824 -4.44248
LeftShoulder1  3.94007 -6.08496 -34.9709
LeftArm  -22.5681 31.7928 -21.9737
LeftForeArm  5.45903 -10.8233 -0.44614
LeftHand  -0.25398 0.0180481 5.50724
RightShoulder  4.67295 7.87575 35.1012
RightArm  -13.9746 -13.2518 35.2989
RightForeArm  -0.967486 19.0644 4.9507
RightHand  -0.848651 1.67677 -14.0918
LeftUpLeg  -15.3851 9.28956 4.94251
LeftLeg  14.9947 -1.9694 -0.587706
LeftFoot  2.81331 1.44328 -11.7468
LeftToes  1.06248e-005 4.65855e-005 -8.18498e-006
542
root  -4.18019 38.981 4.53439 -169.312 -77.2972 164.014
RightUpLeg  10.5545 -6.16988 -15.8489
RightLeg  18.2023 4.90261 1.21887
RightFoot  -20.79 0.510227 7.8568
RightToes  0.000482159 0.542163 -0.142577
Spine  17.4401 0.748354 1.75853
Spine1  2.6524 2.12117 -4.80087
HEad  -14.2766 -6.61514 -5.79791
LeftShoulder1  3.68999 -5.68692 -34.0355
LeftArm  -22.7162 29.5792 -23.1327
LeftForeArm  3.75439 -9.3832 -0.422338
LeftHand  -0.25398 0.0180481 5.50724
RightShoulder  4.60352 7.93145 34.3062
RightArm  -16.7845 -11.4466 33.1746
RightForeArm  -0.832021 18.1821 4.8612
RightHand  -0.903717 2.00423 -14.3575
LeftUpLeg  -15.6887 7.30202 7.70598
LeftLeg  10.6791 0.358251 -0.42407
LeftFoot  1.96788 1.14678 -9.8762
LeftToes  1.06248e-005 4.65855e-005 -8.18498e-006
543
root  -2.94363 39.2286 3.96004 -171.236 -78.3989 167.012
RightUpLeg  7.96964 -7.55641 -13.3905
RightLeg  18.3346 4.85694 1.41904
RightFoot  -19.8588 0.421783 7.47256
RightToes  0.000482159 0.542163 -0.142577
Spine  17.0785 0.668456 2.47941
Spine1  2.69881 1.95323 -4.16286
HEad  -14.5245 -4.93326 -6.75297
LeftShoulder1  3.58519 -5.62421 -33.1706
LeftArm  -22.0303 27.4592 -23.8753
LeftForeArm  2.48374 -7.15505 -0.564253
LeftHand  -0.25398 0.0180481 5.50724
RightShoulder  4.39505 7.85589 32.7461
RightArm  -19.351 -9.66233 29.8726
RightForeArm  -0.678953 15.9241 4.74101
RightHand  -0.994925 2.50065 -14.8209
LeftUpLeg  -16.0025 6.5455 9.05996
LeftLeg  6.80321 2.87803 -0.502006
LeftFoot  0.309004 0.753033 -7.41012
LeftToes  1.06248e-005 4.65855e-005 -8.18498e-006
